<?xml version="1.0"?>
<svg version="1.1" xmlns="http://www.w3.org/2000/svg" width="329" height="63" style=""><path fill="#c96d26" d="M25.608,28.1q-3.842,0-6.596,2.754q-2.788,2.788-2.788,6.63l0,5.134q0,3.774,2.788,6.562t6.596,2.788q3.842,0,6.63-2.788q2.754-2.754,2.754-6.562l0-5.134q0-3.876-2.754-6.63t-6.63-2.754z M32.884,37.484l0,5.134q0,3.094-2.176,5.202q-2.142,2.04-5.1,2.04t-5.066-2.04q-2.176-2.108-2.176-5.202l0-5.134q0-2.856,2.176-5.1q2.176-2.176,5.066-2.176q2.856,0,5.1,2.176q2.176,2.244,2.176,5.1z M50.49056,39.966l2.55,0q2.584,0,4.284-1.7t1.7-4.284q0-2.278-1.7-4.08q-1.802-1.87-4.284-1.87l-10.642,0l-2.108,0l0,23.868l2.108,0l0-11.934l5.542,0l7.242,11.934l2.55,0z M42.39856,37.858l0-7.684l10.642,0q1.564,0,2.754,1.122q1.122,1.122,1.122,2.686q0,1.632-1.122,2.754q-1.19,1.122-2.754,1.122l-10.642,0z M76.90312,28.1l-10.676,0l-2.108,0l0,23.902l2.108,0l0-11.968l10.676,0q2.584,0,4.284-1.7t1.7-4.25q0-2.312-1.7-4.114q-1.802-1.87-4.284-1.87z M76.90312,37.926l-10.676,0l0-7.718l10.676,0q1.564,0,2.754,1.122q1.122,1.19,1.122,2.754q0,1.598-1.122,2.72q-1.19,1.122-2.754,1.122z M105.72968,28.032l-2.142,0l0,10.88l-14.348,0l0-10.88l-2.142,0l0,23.868l2.142,0l0-10.846l14.348,0l0,10.846l2.142,0l0-23.868z M120.00424,27.964q-3.808,0-6.392,2.754q-2.55,2.72-2.55,6.63l0,14.552l2.142,0l0-10.676l13.668,0l0,10.676l2.142,0l0-14.552q0-3.91-2.55-6.63q-2.652-2.754-6.46-2.754z M126.87224,39.116l-13.668,0l0-1.768q0-2.924,1.972-5.066q2.006-2.176,4.828-2.176t4.896,2.176q1.972,2.142,1.972,5.066l0,1.768z M134.1768,51.9l2.108,0l0-14.416q0-2.856,2.176-5.1q2.176-2.176,5.032-2.176t5.1,2.176q2.176,2.244,2.176,5.1l0,14.416l2.108,0l0-14.416q0-3.876-2.754-6.63t-6.63-2.754q-3.808,0-6.562,2.754t-2.754,6.63l0,14.416z M166.94736,27.964q-3.808,0-6.392,2.754q-2.55,2.72-2.55,6.63l0,14.552l2.142,0l0-10.676l13.668,0l0,10.676l2.142,0l0-14.552q0-3.91-2.55-6.63q-2.652-2.754-6.46-2.754z M173.81536,39.116l-13.668,0l0-1.768q0-2.924,1.972-5.066q2.006-2.176,4.828-2.176t4.896,2.176q1.972,2.142,1.972,5.066l0,1.768z M192.47592,30.14l6.562,0l0-2.142l-6.562,0q-4.896,0-8.296,3.468q-3.434,3.502-3.434,8.738q0,4.862,3.434,8.296t8.296,3.434l4.352,0l2.21,0l0-2.176l0-10.88l-2.21,0l-5.202,0l0,2.176l5.202,0l0,8.704l-4.352,0q-3.876,0-6.698-2.822t-2.822-6.732q0-4.25,2.822-7.174q2.788-2.89,6.698-2.89z M206.07048,45.372q0-1.632,1.156-2.958q1.156-1.394,2.788-1.394l0.442,0l6.358,0l0-2.108l-6.358,0l-0.442,0q-1.734-0.34-2.839-1.496t-1.105-2.754q0-2.006,1.173-3.179t3.213-1.173l11.56,0l0-2.142l-11.56,0q-2.618,0-4.556,1.938q-1.938,1.87-1.938,4.556q0,1.7,0.646,3.094t1.904,2.006q-1.258,0.918-1.904,2.414t-0.646,3.196q0,2.652,1.938,4.522q1.972,1.972,4.556,1.972l11.56,0l0-2.244l-11.56,0q-2.04,0-3.213-1.156t-1.173-3.094z"/><path fill="#d93dbc" d="M231.0829384375,45.7109375q0.099609375-2.689453125,0.17431640625-5.51171875t0.14111328125-5.56982421875t0.099609375-5.33740234375t0.033203125-4.8310546875q0.033203125-0.4482421875,0.7802734375-0.7138671875t1.78466796875-0.39013671875t2.19140625-0.15771484375t2.05029296875-0.033203125q0.19921875,0,0.830078125-0.0166015625l0.3154296875,0q0.4814453125,0,1.0126953125,0.033203125q0.697265625,0.0498046875,1.22021484375,0.2158203125t0.52294921875,0.4814453125q0,0.232421875-0.1826171875,0.37353515625t-0.42333984375,0.20751953125t-0.498046875,0.0830078125t-0.35693359375,0.0166015625q-1.560546875,0-3.087890625-0.0498046875q-0.4150390625-0.0166015625-0.8466796875-0.0166015625q-1.12890625,0-2.291015625,0.099609375q0.06640625,0.19921875,0.10791015625,1.20361328125t0.04150390625,2.26611328125t-0.0166015625,2.46533203125t0,1.85107421875l0,4.31640625q0.5146484375-0.033203125,1.0126953125-0.033203125l0.99609375,0l0.6640625-0.033203125q0.33203125-0.0166015625,0.697265625-0.0166015625q0.3818359375,0,0.7802734375,0.0166015625q0.796875,0.033203125,1.45263671875,0.19091796875t0.65576171875,0.55615234375q0,0.298828125-0.2490234375,0.43994140625t-0.55615234375,0.20751953125t-0.5810546875,0.06640625l-0.30712890625,0q-0.9462890625,0-1.96728515625-0.06640625t-1.90087890625-0.06640625q-0.166015625,0.06640625-0.35693359375,0.0498046875t-0.34033203125-0.0166015625q0,2.490234375-0.0498046875,4.95556640625t-0.1162109375,4.90576171875q0,0.4814453125-0.60595703125,0.630859375t-1.15380859375,0.1494140625q-0.6142578125,0-0.97119140625-0.1494140625t-0.50634765625-0.48974609375t-0.1826171875-0.90478515625q-0.0166015625-0.3154296875-0.033203125-0.697265625q0-0.3154296875,0.0166015625-0.6806640625z M243.94367085938,40.8466796875q0-0.33203125,0.07470703125-0.8798828125t0.17431640625-1.08740234375t0.232421875-1.00439453125t0.3154296875-0.59765625q0.1328125-0.1328125,0.45654296875-0.265625t0.6806640625-0.19091796875t0.6640625,0.0498046875t0.37353515625,0.43994140625q-0.232421875,0.298828125-0.42333984375,1.02099609375t-0.29052734375,1.60205078125q-0.0830078125,0.7470703125-0.0830078125,1.5439453125l0,0.2822265625q0.0166015625,0.9296875,0.166015625,1.7099609375t0.45654296875,1.28662109375t0.85498046875,0.50634765625q1.162109375,0,2.125-1.07080078125t1.7099609375-2.61474609375t1.3115234375-3.27880859375t0.962890625-3.02978515625q0.099609375-0.3818359375,0.47314453125-0.5146484375t0.80517578125-0.09130859375t0.77197265625,0.20751953125t0.40673828125,0.3984375q-0.33203125,2.7890625-0.52294921875,5.578125t-0.19091796875,5.611328125q0,0.5478515625,0.0498046875,1.00439453125t-0.0498046875,0.7802734375t-0.43994140625,0.5146484375t-1.08740234375,0.19091796875q-0.166015625,0-0.42333984375-0.033203125t-0.53125-0.10791015625t-0.46484375-0.22412109375t-0.19091796875-0.3486328125q0-1.228515625,0.09130859375-2.5234375t0.25732421875-2.5068359375q-0.4482421875,0.6474609375-0.98779296875,1.28662109375t-1.18701171875,1.15380859375t-1.39453125,0.82177734375t-1.6103515625,0.30712890625q-1.228515625,0-1.93408203125-0.5810546875t-1.0625-1.45263671875t-0.4482421875-1.90087890625t-0.09130859375-1.9921875z M259.57686421875,42.390625l0-0.4814453125q0-0.59765625,0.033203125-1.12890625q0.033203125-0.7470703125,0.033203125-1.228515625q0-0.265625,0.033203125-0.60595703125t0.166015625-0.53955078125q0.166015625-0.166015625,0.39013671875-0.34033203125t0.48974609375-0.17431640625q0.8466796875,0,1.328125,0.19091796875t0.5146484375,0.78857421875l0.06640625,0.5146484375q0.298828125-0.7138671875,0.796875-1.76806640625t1.15380859375-2.0087890625t1.4775390625-1.626953125t1.73486328125-0.67236328125q0.8466796875,0,1.39453125,0.796875t0.87158203125,2.03369140625t0.45654296875,2.755859375t0.1826171875,2.97998046875t0.06640625,2.66455078125t0.1162109375,1.81787109375q0.06640625,0.5146484375,0.22412109375,1.08740234375t0.15771484375,1.05419921875q0,0.1328125-0.19091796875,0.25732421875t-0.40673828125,0.20751953125t-0.43994140625,0.1328125t-0.32373046875,0.0498046875q-0.6474609375,0-0.92138671875-0.97119140625t-0.34033203125-2.43212890625t-0.06640625-3.16259765625t-0.1162109375-3.16259765625t-0.47314453125-2.43212890625t-1.13720703125-1.00439453125q-0.7138671875,0-1.4775390625,0.92138671875t-1.3115234375,2.44873046875q-0.53125,1.52734375-0.73046875,3.4697265625q-0.06640625,0.6142578125-0.06640625,1.228515625q0,1.3447265625,0.2822265625,2.689453125q0.033203125,0.232421875-0.19091796875,0.3486328125t-0.55615234375,0.1826171875t-0.67236328125,0.0830078125t-0.52294921875,0.0166015625q-0.6474609375,0-1.03759765625-0.45654296875t-0.60595703125-1.17041015625t-0.29052734375-1.60205078125t-0.09130859375-1.75146484375z M274.66220601563,42.1083984375q0-1.294921875,0.27392578125-2.34912109375t0.87158203125-1.78466796875t1.56884765625-1.13720703125t2.36572265625-0.40673828125q0.7802734375,0,1.59375,0.20751953125t1.39453125,0.77197265625q0-0.33203125,0.06640625-1.36962890625t0.166015625-2.41552734375t0.20751953125-2.888671875t0.19091796875-2.8056640625t0.1494140625-2.1748046875t0.099609375-0.99609375q0.166015625-0.4814453125,0.6142578125-0.57275390625t0.8466796875-0.09130859375q1.0458984375,0,1.28662109375,0.33203125t0.24072265625,1.328125q0,3.6357421875-0.32373046875,7.23828125t-0.32373046875,7.23828125q0,2.3408203125,0.09130859375,4.70654296875t0.65576171875,4.65673828125l0.1826171875,0.166015625l0.099609375,0.298828125l-0.2490234375,0.3818359375q-0.630859375,0.3984375-1.4609375,0.3984375l-0.06640625,0q-0.8466796875,0-1.560546875-0.3984375q-0.265625-0.166015625-0.43994140625-0.98779296875t-0.27392578125-1.8095703125t-0.1494140625-1.90087890625t-0.0830078125-1.294921875q-0.5810546875,1.328125-1.58544921875,2.28271484375t-2.53173828125,0.95458984375q-1.1953125,0-1.958984375-0.5146484375t-1.18701171875-1.3115234375t-0.59765625-1.78466796875t-0.17431640625-1.96728515625z M276.67099507813,42.2080078125q0,0.3818359375,0.09130859375,1.12890625t0.29052734375,1.494140625t0.55615234375,1.328125t0.93798828125,0.5810546875q0.7802734375-0.3818359375,1.4111328125-1.27001953125t1.08740234375-1.958984375t0.7138671875-2.1416015625t0.25732421875-1.85107421875q0-0.9794921875-0.7138671875-1.626953125t-1.7099609375-0.6474609375q-0.298828125,0-0.60595703125,0.1162109375t-0.57275390625,0.265625q-0.6142578125,0.5810546875-0.95458984375,1.05419921875t-0.5146484375,0.9794921875t-0.22412109375,1.12060546875t-0.0498046875,1.427734375z"/></svg>
